<svg width="80" height="79" viewBox="0 0 80 79" fill="none" xmlns="http://www.w3.org/2000/svg">
<path fill-rule="evenodd" clip-rule="evenodd" d="M-3.5625 15.7187H-21.9063C-24.3938 15.7187 -26.775 16.7062 -28.5375 18.4625C-30.2938 20.225 -31.2813 22.6062 -31.2813 25.0937V43.4375L-44.25 56.4062C-46.0125 58.1687 -47 60.55 -47 63.0375C-47 65.525 -46.0125 67.9063 -44.25 69.6688L-31.2813 82.6375V100.981C-31.2813 103.469 -30.2938 105.85 -28.5375 107.612C-26.775 109.369 -24.3938 110.356 -21.9063 110.356H-3.5625L9.40624 123.325C11.1687 125.087 13.55 126.075 16.0375 126.075C18.525 126.075 20.9063 125.087 22.6688 123.325L35.6375 110.356H53.9812C56.4687 110.356 58.85 109.369 60.6125 107.612C62.3687 105.85 63.3562 103.469 63.3562 100.981V82.6375L76.325 69.6688C78.0875 67.9063 79.075 65.525 79.075 63.0375C79.075 60.55 78.0875 58.1687 76.325 56.4062L63.3562 43.4375V25.0937C63.3562 22.6062 62.3687 20.225 60.6125 18.4625C58.85 16.7062 56.4687 15.7187 53.9812 15.7187H35.6375L22.6688 2.75C20.9063 0.9875 18.525 0 16.0375 0C13.55 0 11.1687 0.9875 9.40624 2.75L-3.5625 15.7187ZM-2.26875 21.9687C-1.4375 21.9687 -0.643753 21.6375 -0.0562515 21.05L13.825 7.16875C14.4125 6.58125 15.2062 6.25 16.0375 6.25C16.8687 6.25 17.6625 6.58125 18.25 7.16875L32.1312 21.05C32.7188 21.6375 33.5125 21.9687 34.3438 21.9687H53.9812C54.8125 21.9687 55.6062 22.3 56.1937 22.8812C56.775 23.4687 57.1062 24.2625 57.1062 25.0937V44.7312C57.1062 45.5625 57.4375 46.3562 58.025 46.9437L71.9062 60.825C72.4937 61.4125 72.825 62.2062 72.825 63.0375C72.825 63.8687 72.4937 64.6625 71.9062 65.25L58.025 79.1312C57.4375 79.7188 57.1062 80.5125 57.1062 81.3438V100.981C57.1062 101.812 56.775 102.606 56.1937 103.194C55.6062 103.775 54.8125 104.106 53.9812 104.106H34.3438C33.5125 104.106 32.7188 104.437 32.1312 105.025L18.25 118.906C17.6625 119.494 16.8687 119.825 16.0375 119.825C15.2062 119.825 14.4125 119.494 13.825 118.906L-0.0562515 105.025C-0.643753 104.437 -1.4375 104.106 -2.26875 104.106H-21.9063C-22.7375 104.106 -23.5313 103.775 -24.1188 103.194C-24.7 102.606 -25.0313 101.812 -25.0313 100.981V81.3438C-25.0313 80.5125 -25.3625 79.7188 -25.95 79.1312L-39.8313 65.25C-40.4188 64.6625 -40.75 63.8687 -40.75 63.0375C-40.75 62.2062 -40.4188 61.4125 -39.8313 60.825L-25.95 46.9437C-25.3625 46.3562 -25.0313 45.5625 -25.0313 44.7312V25.0937C-25.0313 24.2625 -24.7 23.4687 -24.1188 22.8812C-23.5313 22.3 -22.7375 21.9687 -21.9063 21.9687H-2.26875ZM26.7063 38.0375L18.25 29.575C17.025 28.3562 15.05 28.3562 13.825 29.575L5.36874 38.0375H-5.8375C-7.5625 38.0375 -8.9625 39.4375 -8.9625 41.1625V52.3687L-17.425 60.825C-18.6438 62.05 -18.6438 64.025 -17.425 65.25L-8.9625 73.7063V84.9125C-8.9625 86.6375 -7.5625 88.0375 -5.8375 88.0375H5.36874L13.825 96.5C15.05 97.7187 17.025 97.7187 18.25 96.5L26.7063 88.0375H37.9125C39.6375 88.0375 41.0375 86.6375 41.0375 84.9125V73.7063L49.5 65.25C50.7187 64.025 50.7187 62.05 49.5 60.825L41.0375 52.3687V41.1625C41.0375 39.4375 39.6375 38.0375 37.9125 38.0375H26.7063ZM23.2 43.375C23.7875 43.9562 24.5812 44.2875 25.4125 44.2875H34.7875V53.6625C34.7875 54.4937 35.1187 55.2875 35.7 55.875L42.8687 63.0375L35.7 70.2C35.1187 70.7875 34.7875 71.5812 34.7875 72.4125V81.7875H25.4125C24.5812 81.7875 23.7875 82.1187 23.2 82.7L16.0375 89.8687L8.875 82.7C8.2875 82.1187 7.49375 81.7875 6.6625 81.7875H-2.71251V72.4125C-2.71251 71.5812 -3.04375 70.7875 -3.625 70.2L-10.7938 63.0375L-3.625 55.875C-3.04375 55.2875 -2.71251 54.4937 -2.71251 53.6625V44.2875H6.6625C7.49375 44.2875 8.2875 43.9562 8.875 43.375L16.0375 36.2062L23.2 43.375Z" 
 fill="currentColor"/>
</svg>
