<svg width="12" height="20" viewBox="0 0 12 20" fill="none" xmlns="http://www.w3.org/2000/svg">
<path d="M11.6968 10.0068C11.6912 9.81315 11.6525 9.63607 11.5806 9.47559C11.5086 9.3151 11.3979 9.16016 11.2485 9.01074L2.93115 0.958984C2.6932 0.721029 2.3999 0.602051 2.05127 0.602051C1.81885 0.602051 1.60856 0.657389 1.42041 0.768066C1.22673 0.878743 1.07454 1.02816 0.963867 1.21631C0.847656 1.40446 0.789551 1.61475 0.789551 1.84717C0.789551 2.19027 0.919596 2.49186 1.17969 2.75195L8.7002 9.99854L1.17969 17.2534C0.919596 17.519 0.789551 17.8206 0.789551 18.1582C0.789551 18.3962 0.847656 18.6092 0.963867 18.7974C1.07454 18.9855 1.22673 19.1349 1.42041 19.2456C1.60856 19.3618 1.81885 19.4199 2.05127 19.4199C2.3999 19.4199 2.6932 19.2982 2.93115 19.0547L11.2485 11.0029C11.4035 10.8535 11.5169 10.6986 11.5889 10.5381C11.6608 10.3721 11.6968 10.195 11.6968 10.0068Z" fill="#007AFF"/>
</svg>
