<svg width="9" height="12" viewBox="0 0 9 12" fill="none" xmlns="http://www.w3.org/2000/svg">
<g clip-path="url(#clip0_436_1805)">
<path d="M0 5.99659C0 6.16749 0.0615235 6.31789 0.191406 6.44774L5.6123 11.7456C5.7285 11.8686 5.8789 11.9302 6.05665 11.9302C6.4121 11.9302 6.68555 11.6636 6.68555 11.3081C6.68555 11.1304 6.61035 10.98 6.501 10.8638L1.52442 5.99659L6.501 1.12939C6.61035 1.01318 6.68555 0.855958 6.68555 0.685058C6.68555 0.32959 6.4121 0.0629883 6.05665 0.0629883C5.8789 0.0629883 5.7285 0.124512 5.6123 0.240723L0.191406 5.54539C0.0615235 5.66844 0 5.82569 0 5.99659Z" fill="" fill-opacity="0.5"/>
</g>
<defs>
<clipPath id="clip0_436_1805">
<rect width="8.5996" height="11.874" fill="white" transform="translate(0 0.0629883)"/>
</clipPath>
</defs>
</svg>
