<svg width="41" height="32" viewBox="0 0 41 32" fill="none" xmlns="http://www.w3.org/2000/svg">
<path d="M40.5614 9.53293C40.5707 8.82234 40.4105 8.11976 40.094 7.4835C39.7774 6.84724 39.3137 6.29565 38.7413 5.8745C38.1689 5.45335 37.5043 5.17479 36.8026 5.06194C36.101 4.94909 35.3826 5.0052 34.707 5.22562C34.0314 5.44603 33.4181 5.8244 32.918 6.32931C32.4179 6.83422 32.0454 7.45112 31.8315 8.12881C31.6176 8.8065 31.5684 9.52543 31.688 10.226C31.8076 10.9265 32.0925 11.5884 32.5191 12.1567L27.3148 18.4044L22.9728 8.07899C23.7308 7.52602 24.2955 6.74849 24.5869 5.85661C24.8783 4.96472 24.8816 4.00375 24.5963 3.1099C24.311 2.21605 23.7516 1.43468 22.9973 0.876557C22.2431 0.318434 21.3323 0.0118736 20.3941 0.000333212C19.4559 -0.0112072 18.5379 0.272858 17.7701 0.81226C17.0024 1.35166 16.4239 2.11903 16.1167 3.0056C15.8095 3.89216 15.7892 4.85292 16.0585 5.7517C16.3279 6.65048 16.8733 7.44167 17.6175 8.01311L13.0228 18.2286L7.97721 11.8548C8.59415 11.0728 8.93212 10.107 8.93744 9.11097C8.94277 8.11489 8.61514 7.14558 8.0066 6.35699C7.39806 5.5684 6.54349 5.00573 5.5786 4.75834C4.61372 4.51096 3.59384 4.59304 2.68094 4.99154C1.76803 5.39005 1.01444 6.08214 0.539846 6.95791C0.0652489 7.83367 -0.103146 8.84289 0.0614035 9.8253C0.225953 10.8077 0.714014 11.707 1.44808 12.3803C2.18214 13.0536 3.12012 13.4624 4.11305 13.5417L6.46292 28.7603C6.54945 29.3224 6.83231 29.8358 7.26132 30.2092C7.69032 30.5826 8.23774 30.792 8.80645 30.8002L31.2241 31.076C31.7929 31.0818 32.3453 30.8859 32.7833 30.5231C33.2214 30.1604 33.5168 29.6542 33.6171 29.0943L36.3355 13.938C37.4671 13.8765 38.5332 13.3873 39.3178 12.5695C40.1024 11.7516 40.5469 10.6662 40.5614 9.53293ZM20.3704 2.06527C20.8463 2.07113 21.3098 2.21796 21.7022 2.48721C22.0946 2.75646 22.3984 3.13603 22.5751 3.57792C22.7518 4.01981 22.7935 4.50418 22.6949 4.96977C22.5963 5.43536 22.3619 5.86126 22.0213 6.19362C21.6806 6.52597 21.2491 6.74985 20.7812 6.83695C20.3133 6.92405 19.8301 6.87045 19.3927 6.68293C18.9553 6.49542 18.5833 6.1824 18.3238 5.78347C18.0643 5.38455 17.9289 4.91762 17.9348 4.44175C17.9426 3.80362 18.2036 3.19474 18.6604 2.74907C19.1172 2.30339 19.7323 2.05742 20.3704 2.06527ZM2.06428 9.0594C2.07013 8.58352 2.21696 8.12007 2.48621 7.72764C2.75546 7.33522 3.13503 7.03145 3.57692 6.85475C4.01882 6.67805 4.50318 6.63635 4.96877 6.73493C5.43436 6.83351 5.86026 7.06794 6.19262 7.40857C6.52497 7.74921 6.74886 8.18074 6.83595 8.64862C6.92305 9.11649 6.86945 9.59969 6.68193 10.0371C6.49442 10.4745 6.1814 10.8465 5.78247 11.106C5.38355 11.3655 4.91662 11.5009 4.44075 11.4951C3.80262 11.4872 3.19374 11.2262 2.74807 10.7694C2.30239 10.3126 2.05643 9.69752 2.06428 9.0594ZM31.5933 28.7308C31.5788 28.8116 31.5358 28.8846 31.4721 28.9365C31.4084 28.9884 31.3282 29.0157 31.2461 29.0136L8.83181 28.7379C8.74966 28.738 8.67019 28.7087 8.60778 28.6553C8.54538 28.6018 8.50417 28.5278 8.49162 28.4466L6.15198 13.235L6.36281 13.143L12.4561 20.8429C12.5525 20.9633 12.6748 21.0605 12.8137 21.1273C12.9527 21.1942 13.105 21.229 13.2592 21.2293C13.3058 21.2298 13.3524 21.227 13.3985 21.2207C13.5742 21.1989 13.7414 21.1322 13.8839 21.0271C14.0264 20.922 14.1394 20.7819 14.2121 20.6205L19.4996 8.85961C20.019 8.95991 20.5522 8.96647 21.0739 8.87897L26.0705 20.7663C26.1392 20.9295 26.2488 21.0723 26.3886 21.1809C26.5285 21.2895 26.6939 21.3603 26.8691 21.3864C26.9151 21.3938 26.9616 21.3978 27.0081 21.3984C27.1616 21.4003 27.3136 21.3679 27.4529 21.3036C27.5923 21.2393 27.7156 21.1447 27.8137 21.0267L34.0945 13.479L34.303 13.5761L31.5933 28.7308ZM36.0634 11.884C35.5875 11.8782 35.124 11.7313 34.7316 11.4621C34.3392 11.1928 34.0354 10.8133 33.8587 10.3714C33.682 9.92949 33.6403 9.44513 33.7389 8.97954C33.8375 8.51395 34.0719 8.08804 34.4125 7.75569C34.7532 7.42333 35.1847 7.19945 35.6526 7.11235C36.1205 7.02526 36.6036 7.07886 37.0411 7.26637C37.4785 7.45389 37.8504 7.7669 38.11 8.16583C38.3695 8.56476 38.5049 9.03168 38.499 9.50756C38.4912 10.1457 38.2301 10.7546 37.7734 11.2002C37.3166 11.6459 36.7015 11.8919 36.0634 11.884Z" fill="#F2C200"/>
</svg>
